<svg width="32" height="32" viewBox="0 0 32 32" fill="none" xmlns="http://www.w3.org/2000/svg">
    <ellipse cx="14" cy="13.7664" rx="12" ry="11.75" fill="white"/>
    <path d="M28.6404 25.0814C28.1139 24.5548 27.413 24.3101 26.7221 24.3503L24.8709 22.4991C25.6221 21.5399 26.2426 20.4869 26.7221 19.3533C27.4466 17.6362 27.8155 15.8151 27.8155 13.9404C27.8155 12.0657 27.4466 10.2413 26.7221 8.52759C26.0213 6.87087 25.0185 5.38519 23.7408 4.10744C22.463 2.82969 20.9773 1.82694 19.3206 1.12602C17.6035 0.40162 15.7824 0.0327148 13.9078 0.0327148C12.033 0.0327148 10.2086 0.40162 8.49491 1.12602C6.83819 1.82358 5.35251 2.82633 4.07476 4.10409C2.797 5.38184 1.79425 6.86752 1.09333 8.52424C0.368905 10.2414 0 12.0624 0 13.9371C0 15.8118 0.368905 17.6362 1.0933 19.35C1.79422 21.0067 2.79697 22.4923 4.07472 23.7701C5.35248 25.0479 6.83816 26.0507 8.49488 26.7515C10.212 27.476 12.033 27.8449 13.9077 27.8449C15.7824 27.8449 17.6068 27.476 19.3205 26.7515C20.4675 26.2652 21.534 25.6381 22.5032 24.8701L24.3511 26.718C24.3142 27.4089 24.5557 28.1097 25.0822 28.6363L27.7081 31.2622C28.1978 31.7519 28.8417 32 29.4856 32C30.1295 32 30.7734 31.7552 31.263 31.2622C32.2457 30.2796 32.2457 28.6866 31.263 27.7039L28.6404 25.0814ZM22.4764 20.1012C22.1444 20.5573 21.7755 20.9933 21.3697 21.399C20.9739 21.7948 20.5514 22.1536 20.1086 22.4756C18.3178 23.7835 16.1647 24.4878 13.9043 24.4878C11.0839 24.4878 8.43448 23.3911 6.44239 21.3957C4.4503 19.4036 3.3503 16.7509 3.3503 13.9338C3.3503 11.1167 4.44695 8.46391 6.44239 6.47182C8.43448 4.47973 11.0872 3.37972 13.9043 3.37972C16.7214 3.37972 19.3742 4.47638 21.3663 6.47182C23.3584 8.46391 24.4584 11.1167 24.4584 13.9338C24.4618 16.1807 23.7675 18.317 22.4764 20.1012Z" fill="#1976D2"/>
    <path d="M12.9452 6.51205H14.8736C15.4772 6.51205 15.9769 6.98827 16.0708 7.60535H17.7577C17.6504 6.0593 16.3995 4.83521 14.8736 4.83521H12.9452C11.4193 4.83521 10.1684 6.0593 10.061 7.60535H11.7479C11.8385 6.98492 12.3415 6.51205 12.9452 6.51205Z" fill="#1976D2"/>
    <path d="M17.7644 8.44385H16.0876H11.7278H10.051H7.31772C6.80796 8.44385 6.23448 8.93013 5.92258 9.23532C5.72807 9.47007 5.69118 9.63105 5.70795 9.81215C5.83204 11.0161 6.63357 12.1497 7.99181 13.0417C9.19578 13.8299 10.7083 14.3497 12.3583 14.5475C12.8614 14.6079 13.3812 14.6415 13.9043 14.6415C14.8736 14.6415 15.8193 14.5341 16.7047 14.3296C17.8684 14.0613 18.9282 13.6253 19.8202 13.0417C21.1785 12.1497 21.9767 11.0128 22.1041 9.81215C22.1243 9.6277 22.0236 9.36276 21.8895 9.23532C21.5776 8.93013 21.0041 8.44385 20.4943 8.44385H17.7644Z" fill="#1976D2"/>
    <path d="M20.5615 14.1652C19.7499 14.6985 18.8175 15.1244 17.8048 15.4262C16.5941 15.7918 15.2727 15.983 13.9078 15.983C13.8105 15.983 13.7099 15.983 13.6127 15.9796C11.2181 15.9327 8.97117 15.2921 7.25405 14.1652C6.52966 13.689 5.92935 13.1457 5.45983 12.5454C5.34581 12.3978 5.26196 12.4247 5.26196 12.6091V17.2842C5.26196 18.468 6.18087 19.4305 7.31442 19.4305H17.0569H20.4944C20.8667 19.4305 21.2154 19.3265 21.5139 19.1454C22.131 18.7765 22.5468 18.0823 22.5468 17.2842V12.6125C22.5468 12.428 22.463 12.4012 22.349 12.5488C21.8862 13.1457 21.2859 13.689 20.5615 14.1652Z" fill="#1976D2"/>
</svg>
